<svg xmlns="http://www.w3.org/2000/svg" viewBox="0 0 200 200" width="100%" height="100%">
  <!-- Blue Circle Outline -->
  <circle cx="100" cy="100" r="90" fill="none" stroke="#004e98" stroke-width="8" />
  
  <!-- "Ai" in bold blue -->
  <text x="100" y="110" font-family="'Product Sans', Arial, sans-serif" font-weight="bold" font-size="80" fill="#004e98" text-anchor="middle" letter-spacing="-2">Ai</text>
  
  <!-- Brain SVG icon (simplified) -->
  <g transform="translate(130, 40) scale(0.6)" fill="none" stroke="#004e98" stroke-width="3" stroke-linecap="round" stroke-linejoin="round">
    <path d="M12 4c-3.3 0-6 2.7-6 6 0 1.2.3 2.3.9 3.2-.8 2-1.9 4.8-.9 6.8s3.4 1 5 1c1.5 0 3 .5 4 1.5 1-1 2.5-1.5 4-1.5 1.6 0 4 1 5-1s-.1-4.8-.9-6.8c.6-.9.9-2 .9-3.2 0-3.3-2.7-6-6-6Z"/>
    <path d="M12 4v17"/>
    <path d="M10 8h-2"/>
    <path d="M14 8h2"/>
    <path d="M10 12h-2"/>
    <path d="M14 12h2"/>
  </g>

  <!-- "BAKNUS" in bold red -->
  <text x="100" y="155" font-family="'Product Sans', Arial, sans-serif" font-weight="900" font-size="32" fill="#d90429" text-anchor="middle" letter-spacing="1">BAKNUS</text>
</svg>
